<svg id="Layer_1" data-name="Layer 1" xmlns="http://www.w3.org/2000/svg" xmlns:xlink="http://www.w3.org/1999/xlink" viewBox="0 0 4000 1189.57"><defs><style>.cls-1{fill:url(#linear-gradient);}</style><linearGradient id="linear-gradient" x1="2561.74" y1="726.18" x2="3159.9" y2="726.18" gradientUnits="userSpaceOnUse"><stop offset="0" stop-color="#6864f3"/><stop offset="1" stop-color="#8e3be4"/></linearGradient></defs><path d="M576.67,762.61q0,11.86-12.31,13.63T500.15,778q-55.41,0-68.6-2.64t-13.2-18q0-20.67,1.32-62.45T421,632q0-16.26-.88-48.59t-.88-48.6q0-60.24-52.33-60.25-17.14,0-40,15-24.63,16.71-24.63,33V760q0,14.5-13.63,16.27Q273.22,778,225.73,778q-51.45,0-66.85-2.64-13.63-2.19-13.63-14.51,0-34.3.44-103.35t.44-103.79q0-109.5-17.15-172a31.27,31.27,0,0,1-.88-6.6q0-7,6.6-9.67,27.7-3.08,73.88-9.68,69.93-13.62,78.72-13.63,4.83,0,7.48,29.68t7.47,29.69q-4.85,0,47.28-30.56t91.25-30.57q55.85,0,93.23,26.39,41.78,30.35,41.78,84.43V591.53q0,28.61.44,85.54T576.67,762.61Z"/><path d="M1092.09,555.47q0,33.87,4,100.71t4,100.27q0,17.59-15.39,18.91-54.54,4-124.9,4-8.36,0-11.22-25.29t-6.81-25.73q-3.53,1.77-9.24,7.48-49.26,49.71-105.54,49.7-85.75,0-142-67.73-53.22-63.33-53.22-151.28,0-101.6,55-163.6,57.17-64.2,156.56-64.21,69,0,109.06,48.38c1.17,1.47,2.2,2.2,3.08,2.2q4,0,9-21.33t12.09-21.33q16.26,0,62,9.23,43.53,8.81,62.45,15,6.6,2.63,6.59,7a78.6,78.6,0,0,1-1.32,9.24Q1092.09,466.65,1092.09,555.47Zm-141.61,2.64q0-37.38-23.52-61.79t-61.35-24.41q-37.83,0-61.13,24.19t-23.31,62q0,35.63,24.63,61.13t59.81,25.51q37.36,0,61.13-24.41T950.48,558.11Z"/><path d="M1602.67,470.16q0,75.19-4.83,88.83-10.12,31.23-60.69,106-44,64.21-75.21,100.27-11.43,13.63-69,13.63-50.13,0-65.09-3.52a30,30,0,0,1-15.39-8.8Q1286,738,1237.22,667.18,1184.87,591.1,1174.77,563q-11-30.35-11-91,0-17.15.44-51.67t.44-52.11q0-11.43,15.39-11.44,22.42,0,67.5,1.32t67.51,1.32q10.11,0,10.11,13.63,0,12.33-1.75,37.17t-1.77,37.6q0,45.74,2.64,74.76,1.32,15,25.51,56.29,25.07,43.54,36.5,43.54,11,0,35.19-42.66,23.29-40,25.06-54.53,3.53-31.23,3.52-75.64,0-12.75-2.64-38.48T1444.79,373q0-13.62,9.24-13.63,10.56,0,31.44.44t31.45.44q10.55,0,31.88-1.76t31.88-1.76q11,0,14.52,11.44Q1602.67,393.19,1602.67,470.16Z"/><path d="M1602.67,246.75q0,76.51-86.19,76.52-36.95,0-61.13-19.35Q1429,282.82,1429,246.75q0-34.31,27.27-56.29,25.07-20.24,60.25-20.23,34.3,0,59.37,20.67Q1602.67,212.89,1602.67,246.75Z"/><path d="M2238.13,761.29q.87,11.87-12.32,11.87-8.36,0-48.15-9.67t-49-13.2q-91.92,36.08-176.35,36.07-135.88,0-223-90.6-86.19-89.26-86.19-225.6,0-139.41,83.56-231.33,86.19-95,223.84-95,66.85,0,125.78,25.51,63.77,28.14,100.27,79.16,7.47,10.55,7.47,14.95,0,14.09-39.36,63.11t-50.79,49q-2.64,0-20.23-18-21.55-21.54-44-33.42-33.42-18-73.88-18-66,0-104.67,49.25-36.06,45.3-36.06,113,0,71.69,37.38,113.46Q1891.14,625,1962,625q44.85,0,100.27-22.43-1.32-14.52-7.92-73.88-5.72-45.73-5.72-73.89c0-5.56,1.91-8.94,5.72-10.11a20.34,20.34,0,0,1,7-.88q12.75,0,38.48,2.42t38.92,2.42q14.07,0,42.22-2t42.22-2q11,0,11,14.51,0,21.1-2.42,63.77t-2.42,63.77q0,56.73,8.36,169.75Z"/><path d="M2588.19,501.38q0,17.14-18.91,17.15-8.36,0-24.41-1.1t-24-1.1q-36.49,0-49.69,11.44T2458,573.94q0,18.91.66,57.39t.66,57.39q0,12.76,1.75,38t1.76,37.61q0,10.54-14.51,11.87-21.11,1.75-64.65,1.76-41.78,0-66.84-2.64-14.52-1.75-14.51-14.51,0-35.18.44-105.33t.44-105.33q0-103.34-18.91-170.19a30.73,30.73,0,0,1-.89-6.6q0-6.58,6.6-8.79,24.18-2.64,70.81-9.68,69.48-13.62,71.68-13.63,7.92,0,10.11,27.71t7.92,27.7q-6.16,0,36.06-23.09T2568,350.54q24.63,0,24.63,10.55,0,12.77-2.64,36.06-2.64,25.07-3.08,36.06,0,12.77.44,33.87Q2588.2,493,2588.19,501.38Z"/><path d="M3871.9,759.09q0,15.39-13.19,17.15T3793.62,778q-53.65,0-66.85-2.64t-13.19-21.55q0-20.22,1.32-60.47t1.32-60.47q0-76.95-1.76-109.5Q3711.82,471,3664.77,471q-20.68,0-41.12,17.38T3601,526.89q-1.77,18.47-1.76,108.18,0,20.68,1.32,62.67t1.32,63.11q0,14.5-12.76,14.51H3455.87q-12.32,0-12.31-18,0-20.67,1.32-62t1.31-62.45q0-16.26-.87-49.25t-.88-49.7q0-62.88-47.94-62.89-19.35,0-41.78,15-24.63,16.27-24.63,34.3,0,40,.44,119.62t.44,119.18q0,11-2.64,13.63t-13.63,3.52q-19.78,1.75-62.45,1.76-27.7,0-62.88-2.64-10.56-.87-12.54-3.08t-2-13.19q0-35.18.44-105.33t.44-105.32q0-72.12-10.55-162.28a52.5,52.5,0,0,1-.88-7.92q0-7.47,6.16-10.11,9.66-4,36.5-6.6,33-3.07,39.14-4,4.38-.87,34.74-9.23,21.54-6.16,34.74-6.16,8.36,0,8.8,30.56t3.52,30.57a44.26,44.26,0,0,0,10.11-6.16q39.59-30.78,62.45-42.22,33.86-16.26,73.44-16.27,40.45,0,72.12,18,35.63,20.24,46.18,56.73,23.31-31.67,64.21-53.21t79.6-21.55q58,0,94.55,26.83,41.34,30.35,41.34,86.63,0,23.33-1.32,70.15t-1.32,70.14q0,27.71,1.32,83.34T3871.9,759.09Z"/><path d="M1337.49,246.75q0,76.51-86.2,76.52-36.94,0-61.13-19.35-26.39-21.1-26.38-57.17,0-34.31,27.26-56.29,25.07-20.24,60.25-20.23,34.31,0,59.37,20.67Q1337.48,212.89,1337.49,246.75Z"/><rect x="1322.05" y="425.6" width="35.22" height="158.43" rx="11.22" transform="translate(35.42 1095.14) rotate(-45)"/><rect x="1408.53" y="425.34" width="35.22" height="160.25" rx="11.22" transform="translate(2077.17 1871.31) rotate(-135)"/><path class="cls-1" d="M2977,344.13c1.36-3,2.57-5.76,3.89-8.49,2.12-4.39,5.44-6.58,10.5-5.81,18.74,2.85,37.64,4.92,56.21,8.63,23.84,4.76,47.41,10.81,71.09,16.32a23.59,23.59,0,0,1,3.31,1.05c5.91,2.31,7.45,5.14,6.45,11.48-2.44,15.45-5.18,30.86-7.19,46.36-7.19,55.27-10.57,110.78-8.4,166.5,2.12,54.58,5,109.13,7.51,163.69.41,9.12.48,18.26.35,27.38-.17,12.57-5.61,18.55-18,19.26-23.88,1.35-47.77,2.34-71.66,3.42-2.4.11-4.24.31-5.7,2.81Q2998.79,841.9,2972,886.9c-.42.73-.76,1.51-1.37,2.73,8.94,1.75,17.59,3.39,26.21,5.14,30.43,6.18,60.49,13.6,88.73,27,20.48,9.68,39.19,21.89,54.55,38.79,25.86,28.43,26.33,65.61,1.38,95-15.75,18.57-35.77,31-57.64,40.91a388.37,388.37,0,0,1-104.39,30.29c-28.21,4.12-56.6,7.86-85,9.31a591.1,591.1,0,0,1-86-1.49c-35.95-3.4-71.74-7.64-106.83-16.46-29.75-7.48-58.46-17.75-85.24-32.92a133.5,133.5,0,0,1-36.22-29.5c-25.12-29.45-24.51-67.7,1.65-96.26,20.44-22.31,45.87-36.84,74.53-45.18,28.2-8.21,56.89-14.75,85.36-22l9.39-2.41c-1.43-2.48-2.62-4.55-3.82-6.61-22-38-44.86-75.47-65.9-114-23.43-42.86-43.79-87.19-58.38-134-14.92-47.87-14.77-95.38,1.31-143,6.06-18,10.7-36.38,19.32-53.4,30.19-59.63,77.35-97.61,143-111.79,17.8-3.84,35.59-8.44,53.64-10.3a228.89,228.89,0,0,1,132.84,25.75c.9.47,1.81.93,2.72,1.37A7.15,7.15,0,0,0,2977,344.13ZM2860.06,1087c26.43-2,52.9-3.51,79.28-6a441.18,441.18,0,0,0,105.75-23.57c19.36-6.86,37.88-15.28,53.48-29.07,15.89-14.06,15.6-27.26-1-40.32A176.21,176.21,0,0,0,3060.78,966c-35.1-15.81-72.29-23.44-110.14-28.84-7.56-1.08-11.91,1.48-15.92,7.34q-26,38-52.44,75.76c-12.56,18-30.12,18-42.85.19l-.75-1.07c-7.94-11.41-15.94-22.8-23.83-34.25q-14.79-21.48-29.42-43.06c-2.91-4.3-6.54-7-12-6-19.35,3.63-38.8,6.83-58,11.13-27.52,6.17-54.31,14.78-78.21,30.22-7.93,5.13-15.11,11.69-21.75,18.47-7,7.11-7.27,15.38-1.81,22.95s11.83,14.51,20.25,18.74c20.58,10.34,41.38,20.26,63.48,27C2750.39,1080.79,2804.76,1086.7,2860.06,1087Zm101.5-526.21c.52-54.42-43.7-99-98.91-99.79-54.47-.75-99.42,43.79-100,99.1-.59,54.35,43.82,99.16,98.91,99.79C2916.15,660.56,2961,616.09,2961.56,560.83Z"/></svg>